<?xml version="1.0" standalone="no"?>
<!DOCTYPE svg PUBLIC "-//W3C//DTD SVG 20010904//EN"
 "http://www.w3.org/TR/2001/REC-SVG-20010904/DTD/svg10.dtd">
<svg version="1.0" xmlns="http://www.w3.org/2000/svg"
 width="235.000000pt" height="97.000000pt" viewBox="0 0 235.000000 97.000000"
 preserveAspectRatio="xMidYMid meet">

<g transform="translate(0.000000,97.000000) scale(0.100000,-0.100000)"
fill="#000000" stroke="none">
<path d="M972 738 l3 -182 89 -62 90 -63 88 61 88 60 0 184 0 184 -180 0 -180
0 2 -182z m345 -3 l3 -170 -78 -52 c-43 -29 -82 -53 -87 -53 -5 0 -44 23 -87
51 l-78 52 0 174 0 173 163 -2 162 -3 2 -170z"/>
<path d="M1010 728 l1 -153 70 -48 70 -49 74 49 75 48 0 153 0 152 -145 0
-145 0 0 -152z m220 103 c0 -6 -4 -13 -10 -16 -5 -3 -10 -15 -10 -25 0 -24 -5
-27 -62 -35 -30 -5 -48 -4 -48 3 0 5 20 13 45 16 36 6 45 11 45 27 0 15 -7 19
-39 19 -34 0 -38 -3 -34 -20 3 -11 0 -20 -6 -20 -6 0 -11 7 -11 15 0 8 -4 15
-10 15 -5 0 -10 7 -10 15 0 12 15 15 75 15 41 0 75 -4 75 -9z m-30 -90 c0 -10
-91 -33 -99 -25 -8 7 7 16 41 24 47 11 58 11 58 1z m-6 -40 c-5 -5 -28 -12
-51 -16 -60 -9 -55 10 5 22 50 10 62 8 46 -6z m6 -30 c0 -5 -16 -12 -36 -15
-19 -4 -42 -10 -50 -13 -8 -3 -14 0 -14 6 0 6 15 15 33 20 42 12 67 13 67 2z
m0 -30 c0 -10 -13 -15 -67 -26 -50 -10 -40 12 10 23 57 13 57 13 57 3z m0 -40
c0 -4 -22 -13 -50 -18 -39 -8 -50 -7 -50 3 0 12 24 19 78 23 12 0 22 -3 22 -8z
m-10 -31 c0 -14 -37 -31 -54 -24 -26 10 -18 22 17 27 17 2 33 5 35 5 1 1 2 -2
2 -8z"/>
<path d="M105 281 c-62 -26 -93 -116 -61 -176 41 -75 151 -87 205 -21 24 29 1
35 -36 11 -45 -32 -77 -32 -108 0 -55 54 -23 165 47 165 27 0 68 -30 68 -50 0
-5 7 -10 15 -10 16 0 18 18 6 59 -5 20 -13 23 -61 26 -30 2 -64 0 -75 -4z"/>
<path d="M365 272 c-40 -25 -51 -40 -60 -79 -9 -43 9 -94 43 -124 21 -19 38
-24 80 -24 48 0 57 4 82 32 73 81 32 199 -72 210 -31 3 -51 -1 -73 -15z m114
-38 c48 -61 14 -164 -54 -164 -46 0 -75 38 -75 97 0 83 83 125 129 67z"/>
<path d="M608 282 c-22 -4 -24 -22 -3 -22 12 0 15 -17 15 -95 0 -80 -2 -95
-16 -95 -35 0 -4 -25 34 -28 33 -2 42 0 42 12 0 9 -7 16 -15 16 -12 0 -15 15
-15 76 0 92 7 90 75 -25 64 -109 75 -105 75 31 0 92 2 108 16 108 9 0 14 6 12
13 -6 18 -88 21 -88 3 0 -8 7 -16 15 -20 11 -4 15 -20 15 -56 0 -27 -3 -50 -8
-50 -4 0 -26 31 -50 69 -43 69 -52 75 -104 63z"/>
<path d="M877 283 c-12 -11 -8 -23 8 -23 12 0 15 -17 15 -95 0 -78 -3 -95 -15
-95 -8 0 -15 -7 -15 -15 0 -11 12 -15 50 -15 38 0 50 4 50 15 0 8 -7 15 -15
15 -11 0 -15 11 -15 40 0 36 3 40 25 40 16 0 25 -6 25 -15 0 -8 7 -15 15 -15
11 0 15 12 15 45 0 33 -4 45 -15 45 -8 0 -15 -7 -15 -15 0 -9 -9 -15 -25 -15
-22 0 -25 4 -25 40 0 39 1 40 35 40 25 0 44 -8 61 -25 22 -22 44 -33 44 -21 0
2 -7 20 -15 40 l-15 36 -83 0 c-46 0 -87 -3 -90 -7z"/>
<path d="M1104 279 c-3 -5 2 -12 10 -15 13 -5 16 -24 16 -100 0 -56 -4 -94
-10 -94 -5 0 -10 -7 -10 -15 0 -11 12 -15 45 -15 32 0 45 4 45 14 0 8 -7 16
-15 20 -12 4 -15 24 -15 91 0 67 3 87 15 91 8 4 15 12 15 19 0 14 -87 18 -96
4z"/>
<path d="M1250 275 c0 -8 5 -15 10 -15 6 0 10 -38 10 -95 0 -77 -3 -95 -15
-95 -9 0 -12 -6 -9 -15 8 -20 94 -21 94 -1 0 8 -4 16 -10 18 -5 1 -11 20 -14
41 -7 55 21 48 68 -18 32 -45 45 -55 68 -55 18 0 28 5 28 15 0 8 -6 15 -12 16
-7 0 -28 18 -47 40 -30 35 -31 39 -15 45 54 20 71 75 34 109 -26 24 -190 33
-190 10z m154 -31 c19 -19 20 -25 3 -48 -9 -13 -23 -17 -52 -14 -33 2 -41 7
-43 26 -2 13 -1 30 2 38 7 19 70 18 90 -2z"/>
<path d="M1523 284 c-18 -8 -16 -24 2 -24 12 0 15 -17 15 -95 0 -78 -3 -95
-15 -95 -8 0 -15 -7 -15 -15 0 -11 12 -15 45 -15 33 0 45 4 45 15 0 8 -7 15
-15 15 -12 0 -15 14 -15 62 0 53 2 60 14 48 7 -8 21 -37 30 -65 32 -99 39 -98
81 13 14 39 29 72 31 72 2 0 4 -29 4 -65 0 -51 -3 -65 -15 -65 -8 0 -15 -6
-15 -14 0 -9 15 -14 50 -15 38 0 50 3 50 14 0 8 -7 15 -15 15 -12 0 -15 17
-15 95 0 80 3 95 16 95 33 0 6 25 -29 26 l-36 1 -28 -78 c-15 -44 -31 -79 -34
-79 -4 0 -21 35 -37 78 -27 70 -32 77 -58 79 -16 1 -35 0 -41 -3z"/>
<path d="M1921 247 c-10 -23 -29 -71 -41 -105 -13 -35 -29 -66 -37 -69 -28
-11 -12 -29 27 -31 29 -2 40 1 40 12 0 8 -5 16 -11 18 -6 2 -8 14 -4 31 6 24
12 27 46 27 34 0 41 -4 50 -27 7 -19 7 -29 0 -31 -6 -2 -11 -9 -11 -16 0 -8
17 -13 45 -15 34 -1 45 2 45 12 0 8 -6 17 -13 20 -6 2 -21 29 -31 58 -57 162
-76 184 -105 116z m38 -53 c14 -31 8 -44 -20 -37 -12 4 -18 11 -15 20 3 8 6
21 6 29 0 23 16 16 29 -12z"/>
<path d="M2092 258 c-9 -24 -9 -35 -1 -43 8 -7 13 -6 16 3 7 20 33 42 49 42
22 0 20 -185 -2 -194 -28 -11 -4 -26 42 -26 31 0 44 4 44 14 0 8 -7 16 -15 20
-23 8 -22 174 2 183 11 4 24 -3 40 -22 30 -34 47 -22 28 22 l-13 31 -89 1 -89
1 -12 -32z"/>
</g>
</svg>
